<svg width="16" height="16" viewBox="0 0 16 16" fill="none" xmlns="http://www.w3.org/2000/svg">
<path fill-rule="evenodd" clip-rule="evenodd" d="M7.99873 13.9199L3.29162 9.21282C3.17447 9.09566 3.17447 8.90571 3.29162 8.78855L3.7866 8.29358C3.90376 8.17642 4.09371 8.17642 4.21086 8.29358L7.34916 11.4319L7.35156 1.29966C7.3516 1.13397 7.48595 0.999683 7.65164 0.999728L8.35164 0.999919C8.51732 0.999964 8.6516 1.13431 8.65156 1.29999L8.64916 11.431L11.7866 8.29358C11.9038 8.17642 12.0937 8.17642 12.2109 8.29358L12.7058 8.78855C12.823 8.90571 12.823 9.09566 12.7058 9.21282L7.99873 13.9199Z" fill="#B8D1E5"/>
<path fill-rule="evenodd" clip-rule="evenodd" d="M14.6504 15.3504C14.6504 15.5161 14.5161 15.6504 14.3504 15.6504L1.65039 15.6504C1.48471 15.6504 1.35039 15.5161 1.35039 15.3504L1.35039 14.6504C1.35039 14.4847 1.48471 14.3504 1.65039 14.3504L14.3504 14.3504C14.5161 14.3504 14.6504 14.4847 14.6504 14.6504L14.6504 15.3504Z" fill="#B8D1E5"/>
</svg>
