<svg width="16" height="16" viewBox="0 0 16 16" fill="none" xmlns="http://www.w3.org/2000/svg">
<path fill-rule="evenodd" clip-rule="evenodd" d="M3 1.5C3 1.22386 3.22386 1 3.5 1H9.93137C10.064 1 10.1912 1.05268 10.2849 1.14645L13.579 4.44056C13.6728 4.53433 13.7255 4.66151 13.7255 4.79412V14.3627C13.7255 14.6389 13.5016 14.8627 13.2255 14.8627H3.5C3.22386 14.8627 3 14.6389 3 14.3627V1.5ZM4.2 2C4.08954 2 4 2.08954 4 2.2V13.6627C4 13.7732 4.08954 13.8627 4.2 13.8627H12.5255C12.6359 13.8627 12.7255 13.7732 12.7255 13.6627V6.27843C12.7255 6.16797 12.6359 6.07843 12.5255 6.07843H9.14706C8.87092 6.07843 8.64706 5.85457 8.64706 5.57843V2.2C8.64706 2.08954 8.55752 2 8.44706 2H4.2ZM9.70165 2C9.6715 2 9.64706 2.02444 9.64706 2.05459V4.87843C9.64706 4.98889 9.7366 5.07843 9.84706 5.07843H12.6709C12.701 5.07843 12.7255 5.05399 12.7255 5.02384V5.02384C12.7255 5.00936 12.7197 4.99547 12.7095 4.98523L9.74026 2.01599C9.73002 2.00575 9.71613 2 9.70165 2V2Z" fill="#008EFF"/>
<path d="M8.36426 11.1592C8.46973 11.2646 8.64551 11.2646 8.75098 11.1592L11.0361 8.88574C11.1416 8.76855 11.1416 8.59277 11.0361 8.4873L10.7666 8.21777C10.6611 8.1123 10.4854 8.1123 10.3682 8.21777L8.56348 10.0225L6.74707 8.21777C6.62988 8.1123 6.4541 8.1123 6.34863 8.21777L6.0791 8.4873C5.97363 8.59277 5.97363 8.76855 6.0791 8.88574L8.36426 11.1592Z" fill="#008EFF"/>
</svg>
